HIERARCHY
ROOT Hips
{
 OFFSET 0.000000 0.000000 0.000000
 CHANNELS 6 Xposition Yposition Zposition Yrotation Xrotation Zrotation
 JOINT Chest
 {
  OFFSET 0.000000 9.585900 0.002600
  CHANNELS 3 Yrotation Xrotation Zrotation
  JOINT Chest2
  {
   OFFSET 0.000000 9.601200 -0.005300
   CHANNELS 3 Yrotation Xrotation Zrotation
   JOINT Chest3
   {
    OFFSET 0.000000 9.561800 0.000000
    CHANNELS 3 Yrotation Xrotation Zrotation
    JOINT Chest4
    {
     OFFSET 0.000000 9.552100 0.000000
     CHANNELS 3 Yrotation Xrotation Zrotation
     JOINT Neck
     {
      OFFSET 0.000000 14.453000 0.000000
      CHANNELS 3 Yrotation Xrotation Zrotation
      JOINT Head
      {
       OFFSET 0.000000 8.936500 -0.011300
       CHANNELS 3 Yrotation Xrotation Zrotation
       End Site
       {
        OFFSET 0.000000 17.073600 -0.006000
       }
      }
     }
     JOINT RightCollar
     {
      OFFSET -2.921100 9.558500 0.000000
      CHANNELS 3 Yrotation Xrotation Zrotation
      JOINT RightShoulder
      {
       OFFSET -13.519700 0.000000 0.000000
       CHANNELS 3 Yrotation Xrotation Zrotation
       JOINT RightElbow
       {
        OFFSET 0.000000 -29.696600 0.000000
        CHANNELS 3 Yrotation Xrotation Zrotation
        JOINT RightWrist
        {
         OFFSET 0.000000 -24.004700 0.000000
         CHANNELS 3 Yrotation Xrotation Zrotation
         End Site
         {
          OFFSET 0.000000 -17.728500 0.000000
         }
        }
       }
      }
     }
     JOINT LeftCollar
     {
      OFFSET 2.921100 9.558500 0.000000
      CHANNELS 3 Yrotation Xrotation Zrotation
      JOINT LeftShoulder
      {
       OFFSET 13.519700 0.000000 0.000000
       CHANNELS 3 Yrotation Xrotation Zrotation
       JOINT LeftElbow
       {
        OFFSET 0.000000 -29.696600 0.000000
        CHANNELS 3 Yrotation Xrotation Zrotation
        JOINT LeftWrist
        {
         OFFSET 0.000000 -24.004700 0.000000
         CHANNELS 3 Yrotation Xrotation Zrotation
         End Site
         {
          OFFSET 0.000000 -17.728500 0.000000
         }
        }
       }
      }
     }
    }
   }
  }
 }
 JOINT RightHip
 {
  OFFSET -7.771700 -0.012900 -0.001300
  CHANNELS 3 Yrotation Xrotation Zrotation
  JOINT RightKnee
  {
   OFFSET 0.000000 -40.869800 0.001200
   CHANNELS 3 Yrotation Xrotation Zrotation
   JOINT RightAnkle
   {
    OFFSET 0.000000 -39.717900 0.002100
    CHANNELS 3 Yrotation Xrotation Zrotation
    JOINT RightToe
    {
     OFFSET 0.000000 -4.965400 11.033500
     CHANNELS 3 Yrotation Xrotation Zrotation
     End Site
     {
      OFFSET 0.000000 -1.423100 5.872300
     }
    }
   }
  }
 }
 JOINT LeftHip
 {
  OFFSET 7.771700 -0.012900 -0.001300
  CHANNELS 3 Yrotation Xrotation Zrotation
  JOINT LeftKnee
  {
   OFFSET 0.000000 -40.869800 0.001200
   CHANNELS 3 Yrotation Xrotation Zrotation
   JOINT LeftAnkle
   {
    OFFSET 0.000000 -39.717900 0.002100
    CHANNELS 3 Yrotation Xrotation Zrotation
    JOINT LeftToe
    {
     OFFSET 0.000000 -4.965400 11.033500
     CHANNELS 3 Yrotation Xrotation Zrotation
     End Site
     {
      OFFSET 0.000000 -1.423100 5.872300
     }
    }
   }
  }
 }
}
MOTION
Frames: 13
Frame Time: 0.008333
-237.730147 60.317299 -72.971416 157.156916 -26.652148 2.857132 3.117248 16.254637 1.166140 0.295674 1.655380 0.085020 0.504145 2.780242 0.146055 2.684630 14.329186 1.040629 0.328155 18.887685 -0.953454 0.565983 -5.843239 -1.084175 5.805931 2.156448 -3.985055 11.041281 -14.315357 -11.934897 51.775397 -54.861879 -36.349372 12.174194 13.477843 -24.768366 -7.797736 -2.912240 -6.311505 -1.942551 -13.174433 9.782253 -66.735174 -43.381249 52.252403 -12.808647 8.231187 13.271727 -1.661168 -42.606698 6.392322 -20.441576 68.349073 -17.976283 -0.557691 -3.118812 -3.554279 0.014779 -0.061402 0.009331 14.405903 -42.865366 0.232009 24.783408 65.280416 24.629498 -16.794472 -14.759527 1.666821 -0.034850 0.034412 0.042434
-237.726926 60.312539 -72.971259 157.152699 -26.663432 2.849176 3.116648 16.246332 1.174521 0.294117 1.644782 0.084638 0.489156 2.741928 0.144066 2.691855 14.352082 1.037396 0.333301 18.931511 -0.949551 0.552546 -5.798841 -1.082523 5.842495 2.173893 -4.001609 11.064817 -14.325132 -11.945062 51.621553 -54.847010 -36.190147 12.117574 13.402386 -24.882169 -7.780170 -2.899280 -6.319459 -1.946559 -13.165943 9.780214 -66.965774 -43.209666 52.391431 -12.825462 8.306598 13.347881 -1.653610 -42.600308 6.395054 -20.443155 68.357506 -17.965719 -0.555529 -3.119409 -3.554013 0.010082 -0.061731 0.006027 14.417752 -42.869221 0.245220 24.778891 65.295324 24.624832 -16.742020 -14.734541 1.655555 0.016204 0.018196 0.056628
-237.722789 60.305788 -72.968990 157.168275 -26.669422 2.830773 3.104020 16.244493 1.185697 0.289542 1.611818 0.084072 0.489646 2.745101 0.143864 2.686217 14.343024 1.032660 0.303992 18.963783 -0.952428 0.563880 -5.746702 -1.082907 5.873461 2.198532 -4.014389 11.052491 -14.316842 -11.928797 51.441823 -54.853217 -35.950747 12.068555 13.299330 -25.095752 -7.766350 -2.887522 -6.328283 -1.950594 -13.160724 9.771680 -67.284003 -42.983196 52.638921 -12.872045 8.400001 13.349171 -1.670965 -42.598161 6.406685 -20.450714 68.366782 -17.966788 -0.553533 -3.129196 -3.551025 0.005683 -0.056538 0.001487 14.425045 -42.907990 0.279043 24.755706 65.345573 24.604078 -16.828482 -14.686007 1.651153 -0.006712 -0.005489 0.053913
-237.716024 60.299469 -72.969065 157.194486 -26.702000 2.808625 3.079517 16.244836 1.198508 0.290104 1.625706 0.083319 0.487673 2.734111 0.143298 2.679926 14.327001 1.028176 0.296904 19.000093 -0.950777 0.554805 -5.704090 -1.078970 5.915783 2.206552 -4.064101 11.057587 -14.325222 -11.892892 51.121211 -54.886022 -35.606200 12.004743 13.190615 -25.350587 -7.757655 -2.912901 -6.344905 -1.947109 -13.125722 9.765726 -67.684155 -42.718379 53.015365 -12.993077 8.511527 13.208621 -1.701801 -42.570687 6.420004 -20.459736 68.376316 -17.972764 -0.551267 -3.158863 -3.547673 0.001516 -0.032281 -0.003375 14.397061 -42.906137 0.322675 24.739112 65.375621 24.575545 -16.864087 -14.635022 1.653790 -0.005807 -0.036733 0.055568
-237.709674 60.291098 -72.967265 157.204365 -26.726431 2.802882 3.066482 16.237303 1.201098 0.291160 1.640443 0.082709 0.488232 2.741681 0.143059 2.675076 14.295700 1.023007 0.289386 19.033468 -0.948479 0.542974 -5.663852 -1.074642 5.926717 2.238641 -4.070588 11.156250 -14.367947 -11.923862 50.618386 -54.951674 -35.131274 11.917478 13.081799 -25.663437 -7.747882 -2.956685 -6.365936 -1.935450 -13.123270 9.724751 -68.183760 -42.368537 53.508034 -13.211419 8.646892 12.878945 -1.709510 -42.550489 6.422962 -20.490664 68.384989 -18.004891 -0.541760 -3.170914 -3.540183 -0.006598 -0.027398 -0.006571 14.394715 -42.914684 0.355477 24.715981 65.413541 24.542493 -16.877403 -14.599741 1.654561 0.002464 -0.051895 0.057114
-237.702229 60.281352 -72.964446 157.215880 -26.752724 2.799224 3.053031 16.231242 1.200231 0.290437 1.638808 0.082492 0.487126 2.739104 0.142628 2.680847 14.294674 1.018237 0.283561 19.066959 -0.940773 0.526719 -5.629239 -1.070396 5.928306 2.267961 -4.073907 11.235282 -14.392265 -11.923474 49.979645 -55.087014 -34.514896 11.828350 12.983232 -26.055308 -7.752863 -2.952633 -6.372671 -1.917257 -13.145190 9.691083 -68.839856 -41.986394 54.210798 -13.525950 8.798890 12.326219 -1.715258 -42.530042 6.420808 -20.523484 68.392866 -18.037617 -0.529446 -3.180080 -3.533516 -0.013146 -0.023407 -0.009295 14.382644 -42.924554 0.401905 24.690584 65.455830 24.498506 -16.927067 -14.560410 1.651833 0.008205 -0.066707 0.063087
-237.694707 60.270148 -72.960628 157.222050 -26.778350 2.805125 3.050166 16.225611 1.195649 0.290290 1.638049 0.082072 0.494891 2.711867 0.137654 2.672125 14.335724 1.021777 0.277640 19.081377 -0.935781 0.500284 -5.582424 -1.056789 5.930605 2.284129 -4.138419 11.286649 -14.419824 -11.845420 49.108930 -55.315870 -33.670928 11.748883 12.911618 -26.513592 -7.759372 -2.941589 -6.376812 -1.882607 -13.207225 9.640143 -69.643282 -41.516246 55.087734 -13.920828 8.952514 11.542000 -1.707007 -42.516971 6.409893 -20.569873 68.405480 -18.079840 -0.507440 -3.169233 -3.524950 -0.028844 -0.038186 -0.016680 14.368531 -42.926122 0.441598 24.670702 65.493113 24.454579 -16.964959 -14.524391 1.643417 0.031228 -0.079707 0.074201
-237.686729 60.257979 -72.956576 157.231699 -26.809582 2.813287 3.056874 16.188738 1.179457 0.280698 1.671426 0.088836 0.487094 2.737500 0.140869 2.675188 14.326448 1.017219 0.268065 19.088623 -0.937390 0.502499 -5.566054 -1.047003 5.925572 2.315977 -4.168184 11.345105 -14.448805 -11.786106 47.935582 -55.645738 -32.550363 11.692424 12.872328 -26.998352 -7.767540 -2.920651 -6.378583 -1.824884 -13.292460 9.573580 -70.528543 -40.998429 56.073720 -14.372343 9.106754 10.533386 -1.708216 -42.499868 6.397644 -20.597058 68.419674 -18.109685 -0.510683 -3.191481 -3.529836 -0.021074 -0.019714 -0.010671 14.356521 -42.905390 0.458067 24.641647 65.507574 24.400867 -16.938761 -14.501444 1.650938 0.002804 -0.073025 0.061564
-237.678057 60.242835 -72.947933 157.237050 -26.819763 2.811172 3.056342 16.181822 1.176891 0.295487 1.620982 0.075133 0.477866 2.770501 0.151985 2.677928 14.296306 0.994424 0.266537 19.148846 -0.903056 0.490131 -5.539363 -1.037701 5.910148 2.409014 -4.173234 11.370045 -14.492546 -11.729888 46.448395 -56.094327 -31.124748 11.662603 12.863665 -27.457839 -7.780151 -2.850746 -6.354746 -1.734109 -13.389951 9.487233 -71.392615 -40.514571 57.065643 -14.845017 9.258880 9.307341 -1.715817 -42.498362 6.405430 -20.624153 68.426067 -18.135584 -0.481611 -3.185308 -3.527927 -0.045743 -0.024760 -0.018413 14.291255 -42.931385 0.555726 24.596671 65.564003 24.290352 -16.962384 -14.466376 1.649429 0.030056 -0.081034 0.071679
-237.661993 60.228453 -72.940262 157.254716 -26.861100 2.761208 3.055693 16.203419 1.218761 0.302865 1.603657 0.067999 0.487129 2.739011 0.138791 2.673616 14.330613 1.005716 0.250822 19.171588 -0.901925 0.470518 -5.480254 -1.011163 5.887475 2.489464 -4.205200 11.393889 -14.556803 -11.663667 44.676261 -56.611804 -29.466066 11.647679 12.873186 -27.844228 -7.799125 -2.800513 -6.349055 -1.579658 -13.516102 9.388123 -72.142812 -40.154015 57.961619 -15.313616 9.404518 7.869965 -1.775723 -42.465733 6.471847 -20.667630 68.437301 -18.180706 -0.463649 -3.192211 -3.524701 -0.060911 -0.023134 -0.024671 14.081720 -42.947432 0.800606 24.582444 65.641297 24.136290 -16.915461 -14.430649 1.657528 0.060201 -0.097605 0.078056
-237.652313 60.213297 -72.934331 157.263970 -26.903965 2.744009 3.076063 16.174658 1.215483 0.291142 1.639276 0.079615 0.483714 2.748268 0.142947 2.680383 14.325110 0.994831 0.242080 19.200912 -0.889247 0.458423 -5.447581 -0.995842 5.852841 2.587829 -4.239207 11.317920 -14.636531 -11.480883 42.923146 -57.120224 -27.817290 11.624873 12.870344 -28.127008 -7.823984 -2.734069 -6.337692 -1.331546 -13.670441 9.250176 -72.720999 -39.991008 58.683419 -15.788308 9.545790 6.242826 -1.808223 -42.450931 6.505286 -20.723509 68.467411 -18.248337 -0.430718 -3.173134 -3.509153 -0.094191 -0.046575 -0.039120 13.944692 -42.933717 0.945164 24.586068 65.683234 24.041714 -16.902995 -14.404098 1.657311 0.103348 -0.113928 0.097193
-237.648448 60.199616 -72.934451 157.280645 -26.977517 2.753127 3.070170 16.212906 1.190113 0.291951 1.639536 0.078728 0.471506 2.774432 0.157116 2.685866 14.318140 0.985818 0.236819 19.217212 -0.893577 0.448566 -5.421791 -0.976564 5.815615 2.686265 -4.290441 11.164148 -14.728817 -11.305616 41.113573 -57.669260 -26.104064 11.575258 12.826548 -28.299433 -7.872049 -2.639061 -6.373447 -0.969986 -13.879277 9.100960 -73.086910 -40.062558 59.183765 -16.293292 9.685221 4.474121 -1.814657 -42.392854 6.487198 -20.742034 68.491330 -18.275875 -0.426422 -3.189322 -3.503713 -0.100496 -0.038828 -0.041062 13.885385 -42.869249 0.990416 24.571277 65.698985 23.990951 -16.889807 -14.392464 1.659336 0.147232 -0.078806 0.093857
-237.651392 60.181871 -72.929446 157.275974 -27.007958 2.776655 3.085232 16.207927 1.158184 0.283206 1.658137 0.086142 0.480336 2.759366 0.146079 2.697962 14.305370 0.969015 0.228591 19.262200 -0.861860 0.444349 -5.413539 -0.959660 5.756046 2.815899 -4.308569 10.998496 -14.813764 -11.139683 39.261479 -58.232433 -24.397266 11.502471 12.737900 -28.360237 -7.907535 -2.570934 -6.349271 -0.574358 -14.021367 8.868019 -73.200837 -40.356777 59.457298 -16.809676 9.802640 2.635607 -1.795336 -42.395294 6.466769 -20.781211 68.527665 -18.330388 -0.427230 -3.195554 -3.490957 -0.104558 -0.037658 -0.042938 13.865870 -42.844421 1.005475 24.567054 65.710031 23.956247 -16.872208 -14.383789 1.658706 0.131379 -0.070113 0.091746
